<svg xmlns="http://www.w3.org/2000/svg" xml:space="preserve" width="1.99999in" height="1.99999in" version="1.1" style="shape-rendering:geometricPrecision; text-rendering:geometricPrecision; image-rendering:optimizeQuality; fill-rule:evenodd; clip-rule:evenodd" viewBox="0 0 2000 2000" xmlns:xlink="http://www.w3.org/1999/xlink">
 <defs>
  <style type="text/css">
   
    .fil0 {fill:#000002}
   
  </style>
 </defs>
 <g id="Layer_x0020_1">
  <metadata id="CorelCorpID_0Corel-Layer"></metadata>
  <path class="fil0" d="M1731 1853l-618 0c-14,0 -26,-11 -26,-26l0 -166c-89,12 -169,-59 -169,-149 0,-90 80,-160 169,-149l0 -153c0,-14 12,-26 26,-26l160 0c-11,-89 59,-169 149,-169 90,0 160,80 149,169l160 0c14,0 25,12 25,26l0 617c0,15 -11,26 -25,26zm-844 -868l-192 0c-17,0 -30,-18 -24,-34 23,-63 -25,-132 -93,-132 -72,0 -115,76 -94,128 7,18 -3,38 -23,38l-192 0c-14,0 -25,-11 -25,-26l0 -617c0,-15 11,-26 25,-26l160 0c-11,-89 59,-169 149,-169 90,0 160,80 149,169l160 0c14,0 26,11 26,26l0 186c0,18 -19,30 -35,24 -63,-24 -134,24 -134,92 0,69 71,116 134,92 16,-6 35,7 35,24l0 199c0,15 -12,26 -26,26zm-159 -52l133 0 0 -140c-89,11 -169,-59 -169,-149 0,-90 80,-160 169,-149l0 -127 -167 0c-17,0 -30,-19 -24,-36 24,-62 -23,-134 -92,-134 -68,0 -116,72 -92,134 7,17 -6,36 -24,36l-167 0 0 565 134 0c-10,-88 60,-166 149,-166 89,0 159,78 150,166zm159 914l-618 0c-14,0 -25,-11 -25,-25l0 -618c0,-14 11,-26 25,-26l160 0c-11,-89 59,-169 149,-169 90,0 160,80 149,169l160 0c14,0 26,12 26,26l0 186c0,18 -19,31 -35,24 -63,-24 -134,24 -134,92 0,69 71,116 134,93 16,-7 35,6 35,24l0 199c0,14 -12,25 -26,25zm-592 -51l566 0 0 -140c-89,10 -169,-60 -169,-150 0,-90 80,-160 169,-149l0 -127 -167 0c-17,0 -30,-19 -24,-35 24,-63 -23,-134 -92,-134 -68,0 -116,71 -92,134 7,16 -6,35 -24,35l-167 0 0 566zm1436 -811l-199 0c-18,0 -31,-18 -24,-35 24,-63 -24,-134 -93,-134 -73,0 -116,79 -93,131 8,17 -2,38 -23,38l-186 0c-14,0 -26,-11 -26,-26l0 -159c-89,11 -169,-59 -169,-149 0,-91 80,-161 169,-150l0 -159c0,-15 12,-26 26,-26l618 0c14,0 25,11 25,26l0 617c0,15 -11,26 -25,26zm-166 -52l140 0 0 -565 -566 0 0 166c0,18 -19,31 -35,24 -63,-24 -134,24 -134,93 0,68 71,116 134,92 16,-7 35,6 35,24l0 166 127 0c-11,-88 59,-169 149,-169 91,0 160,81 150,169zm-426 869l566 0 0 -566 -167 0c-18,0 -31,-19 -24,-35 24,-63 -24,-134 -92,-134 -69,0 -116,71 -92,134 6,16 -6,35 -24,35l-167 0 0 160c0,18 -18,30 -35,24 -63,-24 -134,24 -134,92 0,69 71,116 134,92 17,-6 35,7 35,25l0 173z" id="id_101" style="fill: rgb(255, 255, 255);"></path>
 </g>
</svg>