<svg version="1.1" id="Layer_1_1_" xmlns="http://www.w3.org/2000/svg" xmlns:xlink="http://www.w3.org/1999/xlink" x="0px" y="0px" viewBox="0 0 64 64" style="enable-background:new 0 0 64 64;" xml:space="preserve">
<g id="Guide">
	<g>
	</g>
	<g>
	</g>
	<g>
	</g>
	<g>
	</g>
	<g>
	</g>
	<g>
	</g>
	<g>
	</g>
	<g>
	</g>
	<g>
	</g>
	<g>
	</g>
	<g>
	</g>
	<g>
	</g>
	<g>
	</g>
	<g>
	</g>
	<g>
	</g>
	<g>
	</g>
	<g>
	</g>
	<g>
	</g>
	<g>
	</g>
	<g>
	</g>
	<g>
	</g>
	<g>
	</g>
	<g>
	</g>
	<g>
	</g>
	<g>
	</g>
	<g>
	</g>
	<g>
	</g>
	<g>
	</g>
	<g>
	</g>
	<g>
	</g>
	<g>
	</g>
	<g>
	</g>
	<g>
	</g>
	<g>
	</g>
	<g>
	</g>
	<g>
	</g>
</g>
<path d="M57.593,62c-1.315,0-1.915-0.375-2.674-0.848C54.054,60.612,53.074,60,51.186,60c-1.888,0-2.867,0.612-3.731,1.152
	c-0.201,0.126-0.392,0.244-0.588,0.351l7.028-14.055c0.237-0.475,0.062-1.052-0.398-1.315L47,42.42V21c0-0.552-0.448-1-1-1h-9v-8
	c0-0.552-0.448-1-1-1h-8c-0.552,0-1,0.448-1,1v8h-9c-0.552,0-1,0.448-1,1v21.42l-6.496,3.712c-0.461,0.263-0.636,0.841-0.398,1.315
	l7.037,14.074c-0.208-0.112-0.41-0.236-0.624-0.37C15.654,60.612,14.675,60,12.789,60s-2.865,0.612-3.729,1.152
	C8.303,61.626,7.705,62,6.393,62c-1.312,0-1.909-0.374-2.667-0.848C2.863,60.612,1.885,60,0,60v2c1.311,0,1.909,0.374,2.666,0.848
	C3.529,63.388,4.507,64,6.393,64s2.864-0.612,3.728-1.152C10.878,62.374,11.477,62,12.789,62c1.312,0,1.911,0.374,2.669,0.848
	c0.864,0.54,1.843,1.152,3.73,1.152c1.886,0,2.866-0.612,3.729-1.152C23.675,62.374,24.273,62,25.586,62s1.912,0.374,2.669,0.848
	c0.698,0.436,1.479,0.913,2.744,1.083V64h2v-0.073c1.248-0.173,2.023-0.647,2.715-1.079C36.474,62.374,37.073,62,38.386,62
	c1.312,0,1.911,0.374,2.668,0.848C41.918,63.388,42.897,64,44.783,64c1.887,0,2.867-0.612,3.731-1.152
	C49.272,62.375,49.872,62,51.186,62c1.315,0,1.915,0.375,2.673,0.848C54.724,63.388,55.705,64,57.593,64s2.869-0.612,3.733-1.152
	C62.085,62.375,62.685,62,64,62v-2c-1.888,0-2.869,0.612-3.733,1.152C59.508,61.625,58.908,62,57.593,62z M35,13v2h-6v-2H35z M29,17
	h6v3h-6V17z M19,22h9h8h9v19.277l-12.504-7.145c-0.034-0.019-0.071-0.028-0.107-0.044c-0.045-0.019-0.088-0.043-0.135-0.055
	c-0.014-0.004-0.028-0.003-0.042-0.006c-0.156-0.034-0.317-0.035-0.471,0.007c-0.008,0.002-0.015,0.007-0.023,0.01
	c-0.074,0.022-0.146,0.049-0.214,0.088L19,41.277V22z M29.316,61.152C28.452,60.612,27.473,60,25.586,60
	c-1.886,0-2.866,0.612-3.729,1.152c-0.671,0.42-1.219,0.76-2.247,0.833l-7.293-14.586L31,36.723v25.185
	C30.314,61.77,29.853,61.487,29.316,61.152z M38.386,60c-1.887,0-2.867,0.612-3.73,1.152c-0.529,0.331-0.985,0.609-1.656,0.75
	V36.723l18.683,10.676l-7.294,14.587c-1.045-0.069-1.598-0.41-2.274-0.834C41.251,60.612,40.272,60,38.386,60z" id="id_101" style="fill: rgb(255, 255, 255);"></path>
<path d="M41,31v-5c0-0.552-0.448-1-1-1H24c-0.552,0-1,0.448-1,1v5c0,0.552,0.448,1,1,1h16C40.552,32,41,31.552,41,31z M34,27v3h-4
	v-3H34z M25,27h3v3h-3V27z M39,30h-3v-3h3V30z" id="id_102" style="fill: rgb(255, 255, 255);"></path>
<path d="M38,3c0,0.551-0.449,1-1,1h-7c-1.654,0-3,1.346-3,3v2h2V7c0-0.551,0.449-1,1-1h7c1.654,0,3-1.346,3-3c0-0.551,0.449-1,1-1
	h11V0H41C39.346,0,38,1.346,38,3z" id="id_103" style="fill: rgb(255, 255, 255);"></path>
<path d="M45,7c0,0.551-0.449,1-1,1h-6v2h6c1.654,0,3-1.346,3-3c0-0.551,0.449-1,1-1h8V4h-8C46.346,4,45,5.346,45,7z" id="id_104" style="fill: rgb(255, 255, 255);"></path>
<rect x="54" width="2" height="2" id="id_105" style="fill: rgb(255, 255, 255);"></rect>
<rect x="58" width="2" height="2" id="id_106" style="fill: rgb(255, 255, 255);"></rect>
<rect x="62" width="2" height="2" id="id_107" style="fill: rgb(255, 255, 255);"></rect>
<rect x="35" y="41" width="2" height="2" id="id_108" style="fill: rgb(255, 255, 255);"></rect>
<rect x="39" y="43" width="2" height="2" id="id_109" style="fill: rgb(255, 255, 255);"></rect>
<rect x="43" y="45" width="2" height="2" id="id_110" style="fill: rgb(255, 255, 255);"></rect>
<rect x="27" y="41" width="2" height="2" id="id_111" style="fill: rgb(255, 255, 255);"></rect>
<rect x="23" y="43" width="2" height="2" id="id_112" style="fill: rgb(255, 255, 255);"></rect>
<rect x="19" y="45" width="2" height="2" id="id_113" style="fill: rgb(255, 255, 255);"></rect>
</svg>